---
title: "小丸压缩视频转M3U8异常"
date: "2018-03-03"
categories:
 - "整理"
tags:
 - "异常"
 - "FFMPEG"
toc: true
---


# 异常反馈
- `2 frames left in the queue on closing`


# Command
- 原始转换请求转换语句
>
/usr/local/ffmpeg/bin/ffmpeg -i /static/cdn/prod/video/38ad11be-f1c7-4dea-9ce0-6ed13a93d906.mp4 -vcodec libx264 -r 24 -vf scale=640:360,pad=640:360:0:0:black -acodec aac -ar 22050 -ab 24k -map 0  -f ssegment -segment_format mpegts -segment_list /static/cdn/prod/video/38ad11be-f1c7-4dea-9ce0-6ed13a93d906_640x360/index.m3u8 -segment_time 10 /static/cdn/prod/video/38ad11be-f1c7-4dea-9ce0-6ed13a93d906_640x360/%04d.ts


# Info
- `/usr/local/ffmpeg/bin/ffprobe -i /static/cdn/prod/video/38ad11be-f1c7-4dea-9ce0-6ed13a93d906.mp4`
- 客户使用**「小丸」**进行视频压缩，添加末帧**图片作为视频流**，导致转 M3U8 时缓存不足引起转换失败
  - 理解为 FFMPEG 进行转码时，对各通道流进行同步缓存
  - 而图片流中图片仅存在于末帧，导致需要缓存的数据过多引发如上异常
  - 仅为与同事探讨的可能，如有知情，请烦请知会
  > Stream #0:0(und): Video: h264 (High) (avc1 / 0x31637661), yuv420p(tv, bt709/unknown/unknown), 1920x1080, 340 kb/s, 25 fps, 25 tbr, 25 tbn, 50 tbc (default)
  Stream #0:1(und): Audio: aac (LC) (mp4a / 0x6134706D), 48000 Hz, stereo, fltp, 129 kb/s 
  Stream #0:2: Video: png, rgba(pc), 1920x1080, 90k tbr, 90k tbn, 90k tbc



# Ask
- [ffmpeg -max_muxing_queue_size](https://ffmpeg.org/ffmpeg.html)
- [[bug][regression] Too many packets buffered for output stream](https://trac.ffmpeg.org/ticket/6375#no2)
- [Conversion failed! by Too many packets buffered for output stream 0:0. in wmv](https://trac.ffmpeg.org/ticket/6472)


# Try
- `-max_muxing_queue_size 9999`
  - `06:01.69 485 kb/s 1920x1080`情况下视频，`9999`值足够使用
  - 时间超过**6min**则出现不足异常


# TODO
## Query
- 具体业务相关，略


## Demo
- 具体业务相关，略


## Command
```
/usr/local/ffmpeg/bin/ffmpeg -i /static/cdn/prod/video/57027182-0cba-4746-8eb4-8d4501da66d1.mp4 -vcodec libx264 -r 24 -vf scale=640:360,pad=640:360:0:0:black -acodec aac -ar 22050 -ab 24k -map 0 -f ssegment -segment_format mpegts -segment_list /static/cdn/prod/video/57027182-0cba-4746-8eb4-8d4501da66d1_640x360/index.m3u8 -segment_time 10 /static/cdn/prod/video/57027182-0cba-4746-8eb4-8d4501da66d1_640x360/%04d.ts

Kafka.Producer send(av, 1, {"env":"prod","args":"id_37976-type_exercise","req":{"type":3,"from":"/static/cdn/prod/video/57027182-0cba-4746-8eb4-8d4501da66d1.mp4","to":"/static/cdn/prod/video/57027182-0cba-4746-8eb4-8d4501da66d1_640x360","args":"format=phone"}})
```

# Update
- 具体业务相关，略

# Request
- 具体业务相关，略